Patient4_TMGait_0pt6_02_left_22_EMG.mot
version=1
nRows=20
nColumns=33
inDegrees=no
endheader
time	1LAddLong	2LGlutMax	3LGlutMed	4LIliopsoas	5LSemiMemb	6LBicFemLong	7LRecFem	8LVastMed	9LVastLat	10LGasMed	11LTibAnt	12lTibPost	13LPeroneusLong	14LSol	15LExtDigLong	16LFlexDigLong	17RAddLong	18RGlutMax	19RGlutMed	20RIliopsoas	21RSemiMemb	22RBicFemLong	23RRecFem	24RVastMed	25RVastLat	26RGasMed	27RTibAnt	28RTibPost	29RPeroneusLong	30RSol	31RExtDigLong	32RFlexDigLong
26.95	0.002594	0.060577	-0.041046	-0.019226	0.005951	-0.058441	0.092926	0.003204	0.15869	-0.056458	0.068665	0.006714	-0.071564	-0.10498	-0.22415	-0.021057	-0.026398	-0.29572	-0.97076	0.011444	-0.039978	-0.23651	-0.17761	-0.010986	0.1445	0.012054	0.11459	-0.014648	-1.1757	-0.168	-0.003662	0.022125
26.951	0.002747	0.055237	-0.032959	-0.010834	-0.007629	-0.028992	0.075378	0.00885	0.16693	-0.026703	-0.009003	0.013733	0.090485	-0.09491	-0.24918	-0.021667	0.005798	-0.25604	-0.64407	-0.001221	-0.020752	-0.22492	-0.19974	-0.040436	0.159	0.016479	-0.072937	-0.011749	2.0378	-0.28336	-0.003967	0.00824
26.952	0.002289	0.10605	-0.03952	0.007324	-0.010681	-0.02655	0.096741	0.005341	0.18341	-0.013123	-0.086823	0.011444	0.16235	-0.087433	-0.20096	-0.020599	0.035248	-0.12787	-0.06012	-0.084991	-0.061493	-0.21591	-0.080109	-0.059967	0.097351	0.0177	-0.17242	-0.010681	-0.49027	-0.25971	-0.007172	0.011749
26.953	0.002289	0.1329	-0.034637	0.008392	-0.006866	-0.03479	0.10712	0.001221	0.20721	-0.018311	-0.13275	0.014191	0.11826	-0.076904	0.057068	-0.014343	0.049744	-0.079041	0.62302	-0.19165	-0.15503	-0.081787	-0.057983	-0.18036	0.067749	0.004272	0.061035	-0.013885	-2.3726	0.07843	-0.007782	0.005188
26.954	0.000763	0.10864	-0.058136	0.012665	-0.005798	-0.037231	0.10666	-0.014343	0.23224	-0.031891	0.021973	0.019989	0.071869	-0.00885	0.058594	-0.02182	0.007324	-0.16907	0.09201	-0.21469	-0.36102	0.1738	-0.25757	-0.09903	0.068359	0.000916	-0.21454	-0.019531	-0.18326	0.18097	-0.003662	0.009918
26.955	0.007629	0.096588	-0.045624	0.014038	-0.006561	-0.039978	0.11398	-0.001984	0.24933	-0.041199	0.084991	0.023193	0.067444	0.032959	-0.088348	-0.023651	-0.033417	-0.24582	-0.33066	-0.20462	-0.26504	0.30273	-0.2214	0.070038	0.10056	-0.007019	-0.36743	-0.014343	1.1931	0.12482	-0.001526	0.003204
26.956	0.006256	0.14938	-0.050659	0.043488	-0.003357	-0.079041	0.10864	0.003967	0.26749	0.020142	0.088196	0.009308	0.039825	-0.016174	-0.10849	-0.019073	0.001831	-0.23636	-0.24475	-0.21576	0.045013	0.027924	-0.12528	0.00351	0.15076	-0.007324	-0.2298	-0.013123	-0.33524	0.054932	-0.005951	-0.000916
26.957	0.000763	0.17105	-0.047302	0.061798	-0.00473	-0.075073	0.103	0.007324	0.2739	0.023041	0.043488	0.012665	0.092773	-0.071564	-0.31921	-0.032654	0.029602	-0.19333	-0.43137	-0.036469	-0.028076	-0.03418	-0.015259	-0.1329	0.12634	-0.014496	-0.12177	-0.009003	0.49698	0.048981	-0.000916	-0.000305
26.958	0.010223	0.26108	-0.054016	0.017395	-0.000763	-0.09552	0.095367	0.009003	0.28015	0.009308	-0.065613	0.032196	0.15945	-0.036926	-0.084534	-0.035248	-0.019379	-0.2269	-0.44357	0.1358	-0.094299	0.072784	-0.038605	-0.074921	0.11795	-0.027161	-0.097504	-0.008087	0.49439	0.06424	-0.002441	-0.005798
26.959	0.011597	0.31143	-0.05661	-0.006714	-0.00061	-0.082245	0.082397	0.015259	0.27298	-0.000916	-0.019226	0.029602	0.16647	-0.015717	0.19608	-0.023651	-0.054474	-0.25223	-0.46875	0.14114	-0.075684	0.10712	-0.029297	0.051727	0.1236	-0.032043	-0.080719	-0.005188	-0.64163	-0.029297	-0.001526	0.000458
26.96	0.004425	0.37537	-0.05661	0.012512	-0.003357	-0.057678	0.072327	0.013885	0.27191	0.031891	0.057831	0.015106	0.088043	0.006866	0.25772	-0.031281	-0.032654	-0.3183	-0.16174	0.058441	-0.20752	0.10056	-0.032196	0.062866	0.11459	-0.025024	0.006561	-0.001526	-1.0529	-0.15701	0.006409	0.000305
26.961	0.00061	0.4689	-0.075378	-0.006714	-0.008545	-0.037537	0.060883	0.014038	0.2739	0.000763	-0.093689	0.009613	0.15289	0.037994	-0.027771	-0.02655	-0.011139	-0.2211	0.024414	0.065918	-0.04303	-0.045929	-0.027771	0.029602	0.071564	-0.024261	0.051727	-0.004272	-0.37674	-0.10361	-0.003967	-0.00351
26.962	0.000916	0.5246	-0.071869	0.003357	-0.005188	-0.044708	0.06012	0.018005	0.26977	0.000916	-0.090485	0.020294	0.13031	0.065918	-0.088501	-0.03067	-0.033417	-0.25162	0.010681	0.090485	0.48721	-0.061951	-0.010834	0.098114	0.072937	-0.028229	0.032959	-0.006104	-0.0383	0.081329	-0.005341	-0.008698
26.963	0.014954	0.6369	-0.074005	0.000153	0.005341	-0.056305	0.04303	0.012512	0.271	0.014191	0.008087	0.032654	0.048065	0.07431	0.048523	-0.020447	-0.0383	-0.24521	-0.21759	0.062866	0.29846	-0.088196	0.011749	0.066986	0.000458	-0.020905	0.034485	-0.003815	0.48904	0.20126	-0.002594	-0.00885
26.964	0.017242	0.79941	-0.063629	0.007782	-0.006256	-0.045013	0.03006	0.014801	0.26962	-0.025177	0.058899	0.030823	0.029602	0.051575	0.71426	-0.019684	-0.036011	-0.20645	-0.29587	0.018921	0.13275	-0.11139	-0.063934	0.049133	-0.038605	0.010529	0.016022	-0.011444	1.5631	0.17868	0.003815	-0.013123
26.965	0.005646	0.89752	-0.062103	-0.012054	-0.008087	-0.061493	0.022278	0.010223	0.26337	-0.046997	0.050507	0.031738	0.039368	0.025635	-0.46448	-0.02594	-0.027466	-0.24246	-0.25955	0.006104	0.10208	-0.06073	-0.041504	0.05188	0.05127	0.010529	0.027161	0.001068	-0.24963	0.11078	-0.002747	-0.006714
26.966	0.012207	1.0313	-0.055389	0.013733	-0.009155	-0.049744	0.005188	0.012054	0.2475	-0.032043	0.11444	0.016479	0.001221	0.059509	-0.54581	-0.019989	-0.015259	-0.22522	-0.12497	0.014801	0.15564	0.015717	0.051422	-0.03006	0.047302	-0.003967	-0.11612	0.013275	0.65842	0.034637	-0.002136	-0.00885
26.967	-0.003662	1.1821	-0.061188	0.009155	-0.006714	-0.062561	-0.011444	0.014801	0.25223	-0.012512	0.1651	0.026703	-0.080261	0.013885	-0.54169	-0.015564	0.009155	-0.23575	-0.12619	0.007629	0.13825	0.001526	0.027161	-0.21835	-0.046692	0.000763	-0.14267	-0.005798	0.10498	-0.051575	-0.001984	-0.001678
26.968	0.006866	1.2921	-0.054932	-0.005341	-0.013275	-0.079041	0.03067	0.014191	0.24445	-0.002747	0.035706	0.020142	-0.1091	-0.062561	-0.19348	-0.010071	0.019836	-0.22644	0.12161	0.015564	0.014191	-0.13763	-0.046387	-0.20065	-0.054474	-0.005951	0.01358	-0.00412	-0.4747	-0.09201	-0.004425	-0.007782
26.969	-0.001831	1.4861	-0.062561	-0.005951	-0.009613	-0.05249	0.002899	0.010071	0.22995	-0.018005	-0.061798	0.016632	-0.042572	-0.11231	-0.017395	-0.009613	0.025482	-0.14999	-0.015106	0.029907	-0.079498	-0.33035	-0.068359	-0.15595	-0.087738	-0.032349	0.12787	-0.005341	-1.0994	-0.083618	-0.004272	-0.002594
